<mxfile host="app.diagrams.net" modified="2024-11-23T06:29:35.553Z" agent="Mozilla/5.0 (Windows NT 10.0; Win64; x64) AppleWebKit/537.36 (KHTML, like Gecko) Chrome/126.0.0.0 Safari/537.36" version="24.1.0" etag="yofBJkYdIN1a7IxymxJB" type="github">
  <diagram name="Page-1" id="Ts9Gti9Ma082AWK6OAHZ">
    <mxGraphModel>
      <root>
        <mxCell id="0" />
        <mxCell id="1" parent="0" />
      </root>
    </mxGraphModel>
  </diagram>
</mxfile>
